<svg xmlns="http://www.w3.org/2000/svg" width="1024" height="1024" viewBox="0 0 1024 1024">
  <defs><linearGradient id="g1" x1="0" y1="0" x2="1" y2="1"><stop offset="0%" stop-color="#111827"/><stop offset="100%" stop-color="#334155"/></linearGradient></defs>
  <rect width="1024" height="1024" rx="180" fill="url(#g1)"/>
  <path d="M280 280h280a60 60 0 0160 60v344a40 40 0 00-40-40H280z" fill="#f8fafc"/>
  <path d="M280 280h20a60 60 0 0160 60v344a40 40 0 00-40-40h-40z" fill="#e2e8f0"/>
  <path d="M360 360h180v20H360zM360 420h220v20H360zM360 480h200v20H360z" fill="#94a3b8"/>
  <g transform="translate(520,520)">
    <rect x="-180" y="40" width="360" height="40" rx="12" fill="#f1f5f9"/>
    <rect x="-260" y="20" width="40" height="80" rx="8" fill="#cbd5e1"/>
    <rect x="-210" y="0" width="50" height="120" rx="10" fill="#e2e8f0"/>
    <rect x="210" y="0" width="50" height="120" rx="10" fill="#e2e8f0"/>
    <rect x="220" y="20" width="40" height="80" rx="8" fill="#cbd5e1"/>
  </g>
  <text x="512" y="900" text-anchor="middle" font-size="72" fill="#e2e8f0" font-family="Arial, Helvetica, sans-serif">正能量打卡</text>
</svg>